<?xml version="1.0" standalone="no"?>
<!DOCTYPE svg PUBLIC "-//W3C//DTD SVG 20010904//EN"
 "http://www.w3.org/TR/2001/REC-SVG-20010904/DTD/svg10.dtd">
<svg version="1.0" xmlns="http://www.w3.org/2000/svg"
 width="900.000000pt" height="900.000000pt" viewBox="0 0 900.000000 900.000000"
 preserveAspectRatio="xMidYMid meet">
<metadata>
Created by potrace 1.14, written by Peter Selinger 2001-2017
</metadata>
<g transform="translate(0.000000,900.000000) scale(0.100000,-0.100000)"
fill="#000000" stroke="none">
<path d="M4238 8995 c-1 -1 -43 -5 -91 -9 -711 -47 -1501 -316 -2102 -715 -55
-36 -104 -68 -110 -70 -5 -2 -12 -7 -15 -10 -3 -3 -58 -46 -122 -94 l-118 -89
101 -116 c168 -194 442 -512 637 -739 58 -68 109 -123 113 -123 4 0 60 38 125
85 66 46 130 90 144 97 14 7 48 27 77 45 124 78 379 196 567 262 103 37 354
104 441 120 33 6 74 13 90 16 17 3 53 8 80 11 28 3 56 7 63 10 33 11 214 19
412 18 241 0 353 -11 616 -60 70 -13 300 -76 389 -107 302 -105 640 -283 877
-463 l57 -43 48 57 c26 31 50 59 53 62 3 3 61 70 130 150 298 347 312 364 430
500 12 14 40 47 63 74 23 27 61 70 84 95 49 54 57 40 -92 152 -362 273 -796
500 -1245 652 -151 51 -353 108 -432 122 -17 3 -35 8 -38 10 -4 3 -25 7 -46
10 -22 3 -45 8 -53 11 -8 2 -30 7 -50 10 -20 3 -58 9 -86 14 -71 13 -190 29
-260 35 -33 3 -76 8 -95 11 -38 6 -636 15 -642 9z"/>
<path d="M1310 7672 c-170 -171 -363 -397 -440 -512 -8 -12 -26 -36 -38 -53
-42 -57 -167 -250 -205 -317 -21 -36 -42 -72 -47 -80 -28 -44 -192 -380 -229
-470 -80 -193 -177 -477 -196 -569 -2 -9 -15 -61 -29 -116 -36 -143 -68 -309
-81 -415 -1 -8 -5 -35 -8 -60 -26 -182 -32 -299 -32 -580 0 -238 7 -399 20
-482 2 -13 6 -49 10 -82 4 -32 8 -68 10 -80 9 -58 27 -166 29 -178 2 -7 6 -31
10 -53 20 -105 100 -404 140 -525 176 -534 466 -1057 826 -1489 106 -127 374
-402 486 -498 83 -71 206 -169 279 -224 33 -24 62 -46 65 -50 3 -3 57 -39 120
-81 372 -244 730 -415 1145 -547 118 -38 332 -96 395 -107 14 -3 68 -13 120
-24 52 -10 115 -21 140 -25 25 -3 56 -8 70 -10 70 -12 166 -22 295 -32 134
-10 556 -10 675 1 52 4 113 9 135 11 22 2 56 5 75 8 19 3 62 9 95 12 33 4 63
9 66 11 3 1 28 6 55 10 27 3 58 8 69 10 11 3 40 9 65 14 283 57 624 165 887
281 95 41 374 181 440 220 103 61 100 59 223 138 252 162 498 360 715 576 174
174 211 214 316 346 247 308 391 530 544 839 25 52 52 106 60 120 18 35 124
293 147 360 72 211 140 452 172 613 71 355 91 555 90 937 0 228 -8 407 -19
450 -2 8 -6 46 -10 83 -3 37 -8 76 -9 85 -12 64 -16 92 -22 126 -3 21 -8 48
-10 60 -3 11 -12 57 -20 101 -96 491 -315 1024 -627 1519 -86 137 -268 379
-391 521 -94 107 -321 335 -334 335 -6 0 -17 -8 -24 -19 -7 -10 -36 -45 -64
-77 -28 -32 -127 -147 -219 -254 -298 -346 -326 -379 -366 -425 -15 -16 -57
-66 -95 -110 -38 -44 -72 -82 -75 -85 -4 -3 38 -52 93 -110 86 -89 127 -136
241 -280 132 -165 295 -446 397 -685 89 -206 172 -482 205 -675 3 -19 8 -42
10 -50 2 -8 7 -37 10 -65 4 -27 8 -61 10 -75 31 -203 25 -621 -10 -845 -3 -16
-8 -50 -11 -75 -11 -89 -59 -286 -109 -450 -32 -104 -127 -335 -187 -453 -69
-136 -48 -134 -168 -17 -37 36 -128 124 -202 195 -74 72 -244 236 -377 365
-134 129 -266 257 -295 284 -28 27 -157 151 -286 276 -129 126 -286 277 -349
336 -102 98 -118 118 -152 192 -22 45 -57 121 -80 170 -23 48 -65 139 -94 202
-48 106 -119 258 -225 485 -23 50 -66 142 -95 205 -29 63 -72 156 -95 205 -23
50 -56 119 -72 155 -44 98 -109 237 -145 310 l-32 65 0 -1422 -1 -1422 128
-124 c70 -69 159 -155 199 -193 39 -38 176 -170 304 -294 127 -124 258 -250
289 -280 31 -30 165 -159 296 -286 131 -128 304 -295 384 -372 126 -122 143
-142 131 -156 -23 -28 -223 -160 -361 -239 -378 -215 -865 -360 -1325 -394
-177 -13 -517 -7 -615 11 -14 3 -50 7 -80 11 -154 16 -462 95 -663 171 -130
49 -437 195 -500 238 -21 14 -40 26 -43 26 -7 0 -115 73 -198 133 -57 42 -66
52 -53 62 9 6 118 110 243 231 124 120 265 256 313 302 47 46 169 164 271 262
254 244 293 283 559 540 128 124 262 253 298 287 l66 62 2 1426 c1 784 -2
1422 -6 1418 -4 -5 -61 -125 -127 -268 -66 -143 -140 -303 -165 -355 -25 -52
-55 -117 -67 -145 -13 -27 -70 -151 -128 -275 -57 -124 -145 -313 -194 -420
-50 -107 -110 -237 -134 -287 -24 -51 -44 -97 -44 -102 0 -7 -151 -156 -509
-501 -37 -36 -173 -166 -301 -290 -128 -124 -265 -256 -305 -295 -40 -38 -167
-161 -281 -272 -326 -314 -357 -343 -364 -343 -13 0 -152 292 -202 425 -82
219 -155 507 -174 683 -3 30 -8 65 -10 76 -17 85 -24 473 -11 641 11 147 44
356 73 468 9 34 18 69 20 77 2 8 8 33 14 55 6 22 12 47 14 56 40 163 233 595
328 731 10 14 18 29 18 32 0 3 18 31 40 63 22 32 46 66 53 77 19 29 110 150
117 156 3 3 21 25 40 50 41 53 88 106 192 214 42 45 73 83 69 86 -6 4 -142
161 -281 324 -14 16 -32 37 -40 46 -8 8 -53 60 -100 115 -46 55 -89 105 -95
111 -5 6 -30 35 -55 64 -25 29 -49 58 -55 64 -5 6 -55 63 -109 126 -55 63
-104 116 -110 117 -6 2 -67 -54 -136 -125z"/>
</g>
</svg>
